<?xml version="1.0" encoding="UTF-8" standalone="no"?>
<!DOCTYPE svg PUBLIC "-//W3C//DTD SVG 1.1//EN" "http://www.w3.org/Graphics/SVG/1.1/DTD/svg11.dtd">
<svg width="100%" height="100%" viewBox="0 0 1030 1398" version="1.1" xmlns="http://www.w3.org/2000/svg" xmlns:xlink="http://www.w3.org/1999/xlink" xml:space="preserve" xmlns:serif="http://www.serif.com/" style="fill-rule:evenodd;clip-rule:evenodd;stroke-linejoin:round;stroke-miterlimit:2;">
    <g transform="matrix(1,0,0,1,-321.210093,-367.330574)">
        <g transform="matrix(1.901401,0,0,1.901401,1826.249423,-89.937544)">
            <g transform="matrix(1,0,0,1,-983.157194,136.300838)">
                <path d="M191.615,744.502C193.07,716.547 197.651,647.026 265.876,581.89C272.843,575.239 278.53,569.809 360.214,507.088C443.464,443.165 454.682,399.82 459.509,396.513C461.808,394.938 461.168,397.189 463.686,402.415C473.244,422.248 492.589,444.998 499.475,452.522C584.428,545.349 689.756,567.252 725.157,690.588C747.672,769.026 715.14,858.466 714.851,835.483C714.799,831.361 714.507,808.218 707.556,784.481C670.272,657.15 547.927,616.986 478.025,535.93C461.296,516.532 461.091,512.688 458.926,515.829C441.55,541.037 424.302,560.272 344.821,621.908C258.685,688.705 213.67,742.548 209.504,836.501C209.439,837.961 207.522,839.403 206.304,836.61C191.582,802.847 191.611,751.964 191.615,744.502Z" style="fill:rgb(218,151,33);"/>
            </g>
            <g transform="matrix(1,0,0,1,-983.157194,136.300838)">
                <path d="M481.498,374.482C470.594,375.323 439.703,380.299 400.676,358.196C324.578,315.095 306.795,176.428 410.312,117.141C425.789,108.277 464.438,99.251 450.395,107.337C369.605,153.857 368.769,294.98 472.429,326.705C512.001,338.817 549.533,323.412 568.113,309.017C573.468,304.869 573.702,303.169 575.041,304.842C575.29,305.153 555.694,350.507 506.498,368.495C496.68,372.085 483.529,374.161 481.498,374.482Z" style="fill:rgb(218,151,33);"/>
            </g>
            <g transform="matrix(1,0,0,1,-983.157194,136.300838)">
                <path d="M414.742,707.284C406.652,698.607 403.039,696.644 406.653,692.644C410.86,687.988 457.908,635.91 459.71,634.883C460.763,634.283 461.091,634.678 484.624,660.393C506.37,684.154 517.848,694.457 517.033,696.301C516.219,698.143 466.869,751.686 462.465,756.464C459.608,759.564 456.607,754.156 455.313,752.657C444.9,740.602 444.823,740.734 414.742,707.284Z" style="fill:rgb(218,151,33);"/>
            </g>
            <g transform="matrix(1,0,0,1,-983.157194,136.300838)">
                <path d="M470.506,190.877C498.359,190.293 499.465,190.691 500.596,187.531C514.206,149.489 514.008,149.199 514.751,148.976C517.611,148.121 528.293,187.431 530.474,189.527C531.934,190.93 568.815,190.536 570.641,191.325C573.749,192.668 543.604,215.945 540.751,219.684C539.008,221.968 549.772,259.766 548.964,262.784C548.065,266.141 517.258,241.361 514.532,241.163C513.339,241.077 484.77,261.236 482.219,263.036C477.077,266.664 481.395,254.604 488.075,225.39C489.66,218.456 487.687,218.475 479.188,210.844C459.206,192.903 459.016,192.962 458.939,192.409C458.811,191.484 459.204,190.94 470.506,190.877Z" style="fill:rgb(218,152,34);"/>
            </g>
        </g>
    </g>
</svg>
